{
  "asset": {
    "generator": "OpenSceneGraph 3.5.6",
    "version": "2.0"
  },
  "accessors": [
    {
      "type": "VEC3",
      "componentType": 5126,
      "count": 65534,
      "max": [
        4.476217746734619,
        7.799394130706787,
        0.3029205799102783
      ],
      "min": [
        -8.965330123901367,
        1.539389967918396,
        -7.740099906921387
      ],
      "bufferView": 0,
      "byteOffset": 0
    },
    {
      "type": "VEC4",
      "componentType": 5121,
      "count": 65534,
      "normalized": true,
      "bufferView": 0,
      "byteOffset": 12
    },
    {
      "type": "VEC3",
      "componentType": 5126,
      "count": 65534,
      "max": [
        4.5856404304504395,
        7.808838844299316,
        0.3444870114326477
      ],
      "min": [
        -8.739060401916504,
        1.5219000577926636,
        -7.7398200035095215
      ],
      "bufferView": 1,
      "byteOffset": 0
    },
    {
      "type": "VEC4",
      "componentType": 5121,
      "count": 65534,
      "normalized": true,
      "bufferView": 1,
      "byteOffset": 12
    },
    {
      "type": "VEC3",
      "componentType": 5126,
      "count": 65534,
      "max": [
        4.4523091316223145,
        7.828629970550537,
        0.33125659823417664
      ],
      "min": [
        -8.889069557189941,
        1.6075199842453003,
        -7.733980178833008
      ],
      "bufferView": 2,
      "byteOffset": 0
    },
    {
      "type": "VEC4",
      "componentType": 5121,
      "count": 65534,
      "normalized": true,
      "bufferView": 2,
      "byteOffset": 12
    },
    {
      "type": "VEC3",
      "componentType": 5126,
      "count": 65534,
      "max": [
        4.412838935852051,
        7.762540340423584,
        0.38073596358299255
      ],
      "min": [
        -8.970580101013184,
        1.5779000520706177,
        -7.7439398765563965
      ],
      "bufferView": 3,
      "byteOffset": 0
    },
    {
      "type": "VEC4",
      "componentType": 5121,
      "count": 65534,
      "normalized": true,
      "bufferView": 3,
      "byteOffset": 12
    },
    {
      "type": "VEC3",
      "componentType": 5126,
      "count": 65534,
      "max": [
        4.476580619812012,
        7.832561016082764,
        0.3969048261642456
      ],
      "min": [
        -8.959199905395508,
        1.5137399435043335,
        -7.746349811553955
      ],
      "bufferView": 4,
      "byteOffset": 0
    },
    {
      "type": "VEC4",
      "componentType": 5121,
      "count": 65534,
      "normalized": true,
      "bufferView": 4,
      "byteOffset": 12
    },
    {
      "type": "VEC3",
      "componentType": 5126,
      "count": 65534,
      "max": [
        4.566259384155273,
        7.802661418914795,
        0.3570185601711273
      ],
      "min": [
        -8.815979957580566,
        1.5743099451065063,
        -7.736070156097412
      ],
      "bufferView": 5,
      "byteOffset": 0
    },
    {
      "type": "VEC4",
      "componentType": 5121,
      "count": 65534,
      "normalized": true,
      "bufferView": 5,
      "byteOffset": 12
    },
    {
      "type": "VEC3",
      "componentType": 5126,
      "count": 65534,
      "max": [
        4.4579033851623535,
        7.829254150390625,
        0.2632441222667694
      ],
      "min": [
        -8.779080390930176,
        1.6247899532318115,
        -7.736949920654297
      ],
      "bufferView": 6,
      "byteOffset": 0
    },
    {
      "type": "VEC4",
      "componentType": 5121,
      "count": 65534,
      "normalized": true,
      "bufferView": 6,
      "byteOffset": 12
    },
    {
      "type": "VEC3",
      "componentType": 5126,
      "count": 65534,
      "max": [
        4.437391757965088,
        7.826510906219482,
        0.31026363372802734
      ],
      "min": [
        -9.019359588623047,
        1.57246994972229,
        -7.742030143737793
      ],
      "bufferView": 7,
      "byteOffset": 0
    },
    {
      "type": "VEC4",
      "componentType": 5121,
      "count": 65534,
      "normalized": true,
      "bufferView": 7,
      "byteOffset": 12
    },
    {
      "type": "VEC3",
      "componentType": 5126,
      "count": 65534,
      "max": [
        4.4324517250061035,
        7.804099082946777,
        0.3345678746700287
      ],
      "min": [
        -8.884090423583984,
        1.5490100383758545,
        -7.743710041046143
      ],
      "bufferView": 8,
      "byteOffset": 0
    },
    {
      "type": "VEC4",
      "componentType": 5121,
      "count": 65534,
      "normalized": true,
      "bufferView": 8,
      "byteOffset": 12
    },
    {
      "type": "VEC3",
      "componentType": 5126,
      "count": 65534,
      "max": [
        4.46638298034668,
        7.813716411590576,
        0.3109147250652313
      ],
      "min": [
        -8.79049015045166,
        1.4288699626922607,
        -7.73475980758667
      ],
      "bufferView": 9,
      "byteOffset": 0
    },
    {
      "type": "VEC4",
      "componentType": 5121,
      "count": 65534,
      "normalized": true,
      "bufferView": 9,
      "byteOffset": 12
    },
    {
      "type": "VEC3",
      "componentType": 5126,
      "count": 65534,
      "max": [
        4.426023006439209,
        7.777757167816162,
        0.36146682500839233
      ],
      "min": [
        -9.025059700012207,
        1.6600600481033325,
        -7.730179786682129
      ],
      "bufferView": 10,
      "byteOffset": 0
    },
    {
      "type": "VEC4",
      "componentType": 5121,
      "count": 65534,
      "normalized": true,
      "bufferView": 10,
      "byteOffset": 12
    },
    {
      "type": "VEC3",
      "componentType": 5126,
      "count": 65534,
      "max": [
        4.516569137573242,
        7.817805767059326,
        0.30523592233657837
      ],
      "min": [
        -8.937430381774902,
        0.9271349906921387,
        -7.711440086364746
      ],
      "bufferView": 11,
      "byteOffset": 0
    },
    {
      "type": "VEC4",
      "componentType": 5121,
      "count": 65534,
      "normalized": true,
      "bufferView": 11,
      "byteOffset": 12
    },
    {
      "type": "VEC3",
      "componentType": 5126,
      "count": 65534,
      "max": [
        4.443943977355957,
        7.797889232635498,
        0.3402946889400482
      ],
      "min": [
        -8.843729972839355,
        1.568850040435791,
        -7.744339942932129
      ],
      "bufferView": 12,
      "byteOffset": 0
    },
    {
      "type": "VEC4",
      "componentType": 5121,
      "count": 65534,
      "normalized": true,
      "bufferView": 12,
      "byteOffset": 12
    },
    {
      "type": "VEC3",
      "componentType": 5126,
      "count": 65534,
      "max": [
        4.463761806488037,
        7.799733638763428,
        0.32232865691185
      ],
      "min": [
        -8.898850440979004,
        1.5670900344848633,
        -7.746840000152588
      ],
      "bufferView": 13,
      "byteOffset": 0
    },
    {
      "type": "VEC4",
      "componentType": 5121,
      "count": 65534,
      "normalized": true,
      "bufferView": 13,
      "byteOffset": 12
    },
    {
      "type": "VEC3",
      "componentType": 5126,
      "count": 65534,
      "max": [
        4.471979141235352,
        7.828092098236084,
        0.27769169211387634
      ],
      "min": [
        -8.91392993927002,
        1.4572700262069702,
        -7.739999771118164
      ],
      "bufferView": 14,
      "byteOffset": 0
    },
    {
      "type": "VEC4",
      "componentType": 5121,
      "count": 65534,
      "normalized": true,
      "bufferView": 14,
      "byteOffset": 12
    },
    {
      "type": "VEC3",
      "componentType": 5126,
      "count": 65534,
      "max": [
        4.3980793952941895,
        7.818586349487305,
        0.37848547101020813
      ],
      "min": [
        -8.823699951171875,
        1.3926500082015991,
        -7.737539768218994
      ],
      "bufferView": 15,
      "byteOffset": 0
    },
    {
      "type": "VEC4",
      "componentType": 5121,
      "count": 65534,
      "normalized": true,
      "bufferView": 15,
      "byteOffset": 12
    },
    {
      "type": "VEC3",
      "componentType": 5126,
      "count": 65534,
      "max": [
        4.447629451751709,
        7.783119201660156,
        0.46837952733039856
      ],
      "min": [
        -8.9299898147583,
        1.6406500339508057,
        -7.741720199584961
      ],
      "bufferView": 16,
      "byteOffset": 0
    },
    {
      "type": "VEC4",
      "componentType": 5121,
      "count": 65534,
      "normalized": true,
      "bufferView": 16,
      "byteOffset": 12
    },
    {
      "type": "VEC3",
      "componentType": 5126,
      "count": 65534,
      "max": [
        4.56043004989624,
        7.793457984924316,
        0.35804226994514465
      ],
      "min": [
        -8.750410079956055,
        1.7492899894714355,
        -7.750840187072754
      ],
      "bufferView": 17,
      "byteOffset": 0
    },
    {
      "type": "VEC4",
      "componentType": 5121,
      "count": 65534,
      "normalized": true,
      "bufferView": 17,
      "byteOffset": 12
    },
    {
      "type": "VEC3",
      "componentType": 5126,
      "count": 65534,
      "max": [
        4.517150402069092,
        7.816872596740723,
        0.3534187972545624
      ],
      "min": [
        -8.97014045715332,
        1.6460599899291992,
        -7.713620185852051
      ],
      "bufferView": 18,
      "byteOffset": 0
    },
    {
      "type": "VEC4",
      "componentType": 5121,
      "count": 65534,
      "normalized": true,
      "bufferView": 18,
      "byteOffset": 12
    },
    {
      "type": "VEC3",
      "componentType": 5126,
      "count": 65534,
      "max": [
        4.490347862243652,
        7.834722518920898,
        0.28459975123405457
      ],
      "min": [
        -8.902770042419434,
        1.5418200492858887,
        -7.73898983001709
      ],
      "bufferView": 19,
      "byteOffset": 0
    },
    {
      "type": "VEC4",
      "componentType": 5121,
      "count": 65534,
      "normalized": true,
      "bufferView": 19,
      "byteOffset": 12
    },
    {
      "type": "VEC3",
      "componentType": 5126,
      "count": 65534,
      "max": [
        4.49962043762207,
        7.799602031707764,
        0.26216498017311096
      ],
      "min": [
        -8.760660171508789,
        1.5450700521469116,
        -7.711750030517578
      ],
      "bufferView": 20,
      "byteOffset": 0
    },
    {
      "type": "VEC4",
      "componentType": 5121,
      "count": 65534,
      "normalized": true,
      "bufferView": 20,
      "byteOffset": 12
    },
    {
      "type": "VEC3",
      "componentType": 5126,
      "count": 65534,
      "max": [
        4.501977920532227,
        7.794189453125,
        0.3572966754436493
      ],
      "min": [
        -8.878230094909668,
        1.187150001525879,
        -7.72298002243042
      ],
      "bufferView": 21,
      "byteOffset": 0
    },
    {
      "type": "VEC4",
      "componentType": 5121,
      "count": 65534,
      "normalized": true,
      "bufferView": 21,
      "byteOffset": 12
    },
    {
      "type": "VEC3",
      "componentType": 5126,
      "count": 65534,
      "max": [
        4.502941131591797,
        7.829648971557617,
        0.3549845814704895
      ],
      "min": [
        -8.808030128479004,
        1.6154199838638306,
        -7.726570129394531
      ],
      "bufferView": 22,
      "byteOffset": 0
    },
    {
      "type": "VEC4",
      "componentType": 5121,
      "count": 65534,
      "normalized": true,
      "bufferView": 22,
      "byteOffset": 12
    },
    {
      "type": "VEC3",
      "componentType": 5126,
      "count": 65534,
      "max": [
        4.497167587280273,
        7.802829265594482,
        0.36535292863845825
      ],
      "min": [
        -8.960960388183594,
        1.5296200513839722,
        -7.711090087890625
      ],
      "bufferView": 23,
      "byteOffset": 0
    },
    {
      "type": "VEC4",
      "componentType": 5121,
      "count": 65534,
      "normalized": true,
      "bufferView": 23,
      "byteOffset": 12
    },
    {
      "type": "VEC3",
      "componentType": 5126,
      "count": 65534,
      "max": [
        4.490939617156982,
        7.801937580108643,
        0.31951263546943665
      ],
      "min": [
        -8.947790145874023,
        1.6651699542999268,
        -7.72068977355957
      ],
      "bufferView": 24,
      "byteOffset": 0
    },
    {
      "type": "VEC4",
      "componentType": 5121,
      "count": 65534,
      "normalized": true,
      "bufferView": 24,
      "byteOffset": 12
    },
    {
      "type": "VEC3",
      "componentType": 5126,
      "count": 65534,
      "max": [
        4.499851226806641,
        7.7657246589660645,
        0.40117377042770386
      ],
      "min": [
        -8.869739532470703,
        1.5302300453186035,
        -7.741950035095215
      ],
      "bufferView": 25,
      "byteOffset": 0
    },
    {
      "type": "VEC4",
      "componentType": 5121,
      "count": 65534,
      "normalized": true,
      "bufferView": 25,
      "byteOffset": 12
    },
    {
      "type": "VEC3",
      "componentType": 5126,
      "count": 65534,
      "max": [
        4.41903829574585,
        7.7855119705200195,
        0.3881678283214569
      ],
      "min": [
        -8.874369621276855,
        1.7319400310516357,
        -7.722320079803467
      ],
      "bufferView": 26,
      "byteOffset": 0
    },
    {
      "type": "VEC4",
      "componentType": 5121,
      "count": 65534,
      "normalized": true,
      "bufferView": 26,
      "byteOffset": 12
    },
    {
      "type": "VEC3",
      "componentType": 5126,
      "count": 65534,
      "max": [
        4.474454402923584,
        7.828129291534424,
        0.28933626413345337
      ],
      "min": [
        -8.814530372619629,
        1.5782500505447388,
        -7.738120079040527
      ],
      "bufferView": 27,
      "byteOffset": 0
    },
    {
      "type": "VEC4",
      "componentType": 5121,
      "count": 65534,
      "normalized": true,
      "bufferView": 27,
      "byteOffset": 12
    },
    {
      "type": "VEC3",
      "componentType": 5126,
      "count": 65534,
      "max": [
        4.573101997375488,
        7.791893482208252,
        0.3066615164279938
      ],
      "min": [
        -8.803009986877441,
        1.5393600463867188,
        -7.731870174407959
      ],
      "bufferView": 28,
      "byteOffset": 0
    },
    {
      "type": "VEC4",
      "componentType": 5121,
      "count": 65534,
      "normalized": true,
      "bufferView": 28,
      "byteOffset": 12
    },
    {
      "type": "VEC3",
      "componentType": 5126,
      "count": 65534,
      "max": [
        4.533106327056885,
        7.816193580627441,
        0.2826867401599884
      ],
      "min": [
        -8.967639923095703,
        1.6716599464416504,
        -7.742599964141846
      ],
      "bufferView": 29,
      "byteOffset": 0
    },
    {
      "type": "VEC4",
      "componentType": 5121,
      "count": 65534,
      "normalized": true,
      "bufferView": 29,
      "byteOffset": 12
    },
    {
      "type": "VEC3",
      "componentType": 5126,
      "count": 65534,
      "max": [
        4.568575859069824,
        7.817670822143555,
        0.3331894278526306
      ],
      "min": [
        -8.860159873962402,
        1.5258500576019287,
        -7.7336201667785645
      ],
      "bufferView": 30,
      "byteOffset": 0
    },
    {
      "type": "VEC4",
      "componentType": 5121,
      "count": 65534,
      "normalized": true,
      "bufferView": 30,
      "byteOffset": 12
    },
    {
      "type": "VEC3",
      "componentType": 5126,
      "count": 65534,
      "max": [
        4.502082824707031,
        7.801497936248779,
        0.3744068145751953
      ],
      "min": [
        -8.824419975280762,
        1.6815400123596191,
        -7.737490177154541
      ],
      "bufferView": 31,
      "byteOffset": 0
    },
    {
      "type": "VEC4",
      "componentType": 5121,
      "count": 65534,
      "normalized": true,
      "bufferView": 31,
      "byteOffset": 12
    },
    {
      "type": "VEC3",
      "componentType": 5126,
      "count": 46949,
      "max": [
        4.40836763381958,
        7.817126750946045,
        0.2782893180847168
      ],
      "min": [
        -8.90627384185791,
        1.6667799949645996,
        -7.738190174102783
      ],
      "bufferView": 32,
      "byteOffset": 0
    },
    {
      "type": "VEC4",
      "componentType": 5121,
      "count": 46949,
      "normalized": true,
      "bufferView": 32,
      "byteOffset": 12
    }
  ],
  "bufferViews": [
    {
      "buffer": 0,
      "byteOffset": 0,
      "byteLength": 1048544,
      "byteStride": 16,
      "target": 34962
    },
    {
      "buffer": 0,
      "byteOffset": 1048544,
      "byteLength": 1048544,
      "byteStride": 16,
      "target": 34962
    },
    {
      "buffer": 0,
      "byteOffset": 2097088,
      "byteLength": 1048544,
      "byteStride": 16,
      "target": 34962
    },
    {
      "buffer": 0,
      "byteOffset": 3145632,
      "byteLength": 1048544,
      "byteStride": 16,
      "target": 34962
    },
    {
      "buffer": 0,
      "byteOffset": 4194176,
      "byteLength": 1048544,
      "byteStride": 16,
      "target": 34962
    },
    {
      "buffer": 0,
      "byteOffset": 5242720,
      "byteLength": 1048544,
      "byteStride": 16,
      "target": 34962
    },
    {
      "buffer": 0,
      "byteOffset": 6291264,
      "byteLength": 1048544,
      "byteStride": 16,
      "target": 34962
    },
    {
      "buffer": 0,
      "byteOffset": 7339808,
      "byteLength": 1048544,
      "byteStride": 16,
      "target": 34962
    },
    {
      "buffer": 0,
      "byteOffset": 8388352,
      "byteLength": 1048544,
      "byteStride": 16,
      "target": 34962
    },
    {
      "buffer": 0,
      "byteOffset": 9436896,
      "byteLength": 1048544,
      "byteStride": 16,
      "target": 34962
    },
    {
      "buffer": 0,
      "byteOffset": 10485440,
      "byteLength": 1048544,
      "byteStride": 16,
      "target": 34962
    },
    {
      "buffer": 0,
      "byteOffset": 11533984,
      "byteLength": 1048544,
      "byteStride": 16,
      "target": 34962
    },
    {
      "buffer": 0,
      "byteOffset": 12582528,
      "byteLength": 1048544,
      "byteStride": 16,
      "target": 34962
    },
    {
      "buffer": 0,
      "byteOffset": 13631072,
      "byteLength": 1048544,
      "byteStride": 16,
      "target": 34962
    },
    {
      "buffer": 0,
      "byteOffset": 14679616,
      "byteLength": 1048544,
      "byteStride": 16,
      "target": 34962
    },
    {
      "buffer": 0,
      "byteOffset": 15728160,
      "byteLength": 1048544,
      "byteStride": 16,
      "target": 34962
    },
    {
      "buffer": 0,
      "byteOffset": 16776704,
      "byteLength": 1048544,
      "byteStride": 16,
      "target": 34962
    },
    {
      "buffer": 0,
      "byteOffset": 17825248,
      "byteLength": 1048544,
      "byteStride": 16,
      "target": 34962
    },
    {
      "buffer": 0,
      "byteOffset": 18873792,
      "byteLength": 1048544,
      "byteStride": 16,
      "target": 34962
    },
    {
      "buffer": 0,
      "byteOffset": 19922336,
      "byteLength": 1048544,
      "byteStride": 16,
      "target": 34962
    },
    {
      "buffer": 0,
      "byteOffset": 20970880,
      "byteLength": 1048544,
      "byteStride": 16,
      "target": 34962
    },
    {
      "buffer": 0,
      "byteOffset": 22019424,
      "byteLength": 1048544,
      "byteStride": 16,
      "target": 34962
    },
    {
      "buffer": 0,
      "byteOffset": 23067968,
      "byteLength": 1048544,
      "byteStride": 16,
      "target": 34962
    },
    {
      "buffer": 0,
      "byteOffset": 24116512,
      "byteLength": 1048544,
      "byteStride": 16,
      "target": 34962
    },
    {
      "buffer": 0,
      "byteOffset": 25165056,
      "byteLength": 1048544,
      "byteStride": 16,
      "target": 34962
    },
    {
      "buffer": 0,
      "byteOffset": 26213600,
      "byteLength": 1048544,
      "byteStride": 16,
      "target": 34962
    },
    {
      "buffer": 0,
      "byteOffset": 27262144,
      "byteLength": 1048544,
      "byteStride": 16,
      "target": 34962
    },
    {
      "buffer": 0,
      "byteOffset": 28310688,
      "byteLength": 1048544,
      "byteStride": 16,
      "target": 34962
    },
    {
      "buffer": 0,
      "byteOffset": 29359232,
      "byteLength": 1048544,
      "byteStride": 16,
      "target": 34962
    },
    {
      "buffer": 0,
      "byteOffset": 30407776,
      "byteLength": 1048544,
      "byteStride": 16,
      "target": 34962
    },
    {
      "buffer": 0,
      "byteOffset": 31456320,
      "byteLength": 1048544,
      "byteStride": 16,
      "target": 34962
    },
    {
      "buffer": 0,
      "byteOffset": 32504864,
      "byteLength": 1048544,
      "byteStride": 16,
      "target": 34962
    },
    {
      "buffer": 0,
      "byteOffset": 33553408,
      "byteLength": 751184,
      "byteStride": 16,
      "target": 34962
    }
  ],
  "buffers": [
    {
      "uri": "Highway_1_washed_out_at_Rat_Creek.bin",
      "byteLength": 34304592
    }
  ],
  "materials": [
    {
      "name": "Scene - Root",
      "doubleSided": true,
      "pbrMetallicRoughness": {
        "roughnessFactor": 0.6,
        "metallicFactor": 0
      },
      "extensions": {
        "KHR_materials_unlit": {}
      }
    }
  ],
  "meshes": [
    {
      "name": "GeometryNode_1",
      "primitives": [
        {
          "attributes": {
            "POSITION": 0,
            "COLOR_0": 1
          },
          "mode": 0,
          "material": 0
        }
      ]
    },
    {
      "name": "GeometryNode_6",
      "primitives": [
        {
          "attributes": {
            "POSITION": 2,
            "COLOR_0": 3
          },
          "mode": 0,
          "material": 0
        }
      ]
    },
    {
      "name": "GeometryNode_11",
      "primitives": [
        {
          "attributes": {
            "POSITION": 4,
            "COLOR_0": 5
          },
          "mode": 0,
          "material": 0
        }
      ]
    },
    {
      "name": "GeometryNode_16",
      "primitives": [
        {
          "attributes": {
            "POSITION": 6,
            "COLOR_0": 7
          },
          "mode": 0,
          "material": 0
        }
      ]
    },
    {
      "name": "GeometryNode_21",
      "primitives": [
        {
          "attributes": {
            "POSITION": 8,
            "COLOR_0": 9
          },
          "mode": 0,
          "material": 0
        }
      ]
    },
    {
      "name": "GeometryNode_26",
      "primitives": [
        {
          "attributes": {
            "POSITION": 10,
            "COLOR_0": 11
          },
          "mode": 0,
          "material": 0
        }
      ]
    },
    {
      "name": "GeometryNode_31",
      "primitives": [
        {
          "attributes": {
            "POSITION": 12,
            "COLOR_0": 13
          },
          "mode": 0,
          "material": 0
        }
      ]
    },
    {
      "name": "GeometryNode_36",
      "primitives": [
        {
          "attributes": {
            "POSITION": 14,
            "COLOR_0": 15
          },
          "mode": 0,
          "material": 0
        }
      ]
    },
    {
      "name": "GeometryNode_41",
      "primitives": [
        {
          "attributes": {
            "POSITION": 16,
            "COLOR_0": 17
          },
          "mode": 0,
          "material": 0
        }
      ]
    },
    {
      "name": "GeometryNode_46",
      "primitives": [
        {
          "attributes": {
            "POSITION": 18,
            "COLOR_0": 19
          },
          "mode": 0,
          "material": 0
        }
      ]
    },
    {
      "name": "GeometryNode_51",
      "primitives": [
        {
          "attributes": {
            "POSITION": 20,
            "COLOR_0": 21
          },
          "mode": 0,
          "material": 0
        }
      ]
    },
    {
      "name": "GeometryNode_56",
      "primitives": [
        {
          "attributes": {
            "POSITION": 22,
            "COLOR_0": 23
          },
          "mode": 0,
          "material": 0
        }
      ]
    },
    {
      "name": "GeometryNode_61",
      "primitives": [
        {
          "attributes": {
            "POSITION": 24,
            "COLOR_0": 25
          },
          "mode": 0,
          "material": 0
        }
      ]
    },
    {
      "name": "GeometryNode_66",
      "primitives": [
        {
          "attributes": {
            "POSITION": 26,
            "COLOR_0": 27
          },
          "mode": 0,
          "material": 0
        }
      ]
    },
    {
      "name": "GeometryNode_71",
      "primitives": [
        {
          "attributes": {
            "POSITION": 28,
            "COLOR_0": 29
          },
          "mode": 0,
          "material": 0
        }
      ]
    },
    {
      "name": "GeometryNode_76",
      "primitives": [
        {
          "attributes": {
            "POSITION": 30,
            "COLOR_0": 31
          },
          "mode": 0,
          "material": 0
        }
      ]
    },
    {
      "name": "GeometryNode_81",
      "primitives": [
        {
          "attributes": {
            "POSITION": 32,
            "COLOR_0": 33
          },
          "mode": 0,
          "material": 0
        }
      ]
    },
    {
      "name": "GeometryNode_86",
      "primitives": [
        {
          "attributes": {
            "POSITION": 34,
            "COLOR_0": 35
          },
          "mode": 0,
          "material": 0
        }
      ]
    },
    {
      "name": "GeometryNode_91",
      "primitives": [
        {
          "attributes": {
            "POSITION": 36,
            "COLOR_0": 37
          },
          "mode": 0,
          "material": 0
        }
      ]
    },
    {
      "name": "GeometryNode_96",
      "primitives": [
        {
          "attributes": {
            "POSITION": 38,
            "COLOR_0": 39
          },
          "mode": 0,
          "material": 0
        }
      ]
    },
    {
      "name": "GeometryNode_101",
      "primitives": [
        {
          "attributes": {
            "POSITION": 40,
            "COLOR_0": 41
          },
          "mode": 0,
          "material": 0
        }
      ]
    },
    {
      "name": "GeometryNode_106",
      "primitives": [
        {
          "attributes": {
            "POSITION": 42,
            "COLOR_0": 43
          },
          "mode": 0,
          "material": 0
        }
      ]
    },
    {
      "name": "GeometryNode_111",
      "primitives": [
        {
          "attributes": {
            "POSITION": 44,
            "COLOR_0": 45
          },
          "mode": 0,
          "material": 0
        }
      ]
    },
    {
      "name": "GeometryNode_116",
      "primitives": [
        {
          "attributes": {
            "POSITION": 46,
            "COLOR_0": 47
          },
          "mode": 0,
          "material": 0
        }
      ]
    },
    {
      "name": "GeometryNode_121",
      "primitives": [
        {
          "attributes": {
            "POSITION": 48,
            "COLOR_0": 49
          },
          "mode": 0,
          "material": 0
        }
      ]
    },
    {
      "name": "GeometryNode_126",
      "primitives": [
        {
          "attributes": {
            "POSITION": 50,
            "COLOR_0": 51
          },
          "mode": 0,
          "material": 0
        }
      ]
    },
    {
      "name": "GeometryNode_131",
      "primitives": [
        {
          "attributes": {
            "POSITION": 52,
            "COLOR_0": 53
          },
          "mode": 0,
          "material": 0
        }
      ]
    },
    {
      "name": "GeometryNode_136",
      "primitives": [
        {
          "attributes": {
            "POSITION": 54,
            "COLOR_0": 55
          },
          "mode": 0,
          "material": 0
        }
      ]
    },
    {
      "name": "GeometryNode_141",
      "primitives": [
        {
          "attributes": {
            "POSITION": 56,
            "COLOR_0": 57
          },
          "mode": 0,
          "material": 0
        }
      ]
    },
    {
      "name": "GeometryNode_146",
      "primitives": [
        {
          "attributes": {
            "POSITION": 58,
            "COLOR_0": 59
          },
          "mode": 0,
          "material": 0
        }
      ]
    },
    {
      "name": "GeometryNode_151",
      "primitives": [
        {
          "attributes": {
            "POSITION": 60,
            "COLOR_0": 61
          },
          "mode": 0,
          "material": 0
        }
      ]
    },
    {
      "name": "GeometryNode_156",
      "primitives": [
        {
          "attributes": {
            "POSITION": 62,
            "COLOR_0": 63
          },
          "mode": 0,
          "material": 0
        }
      ]
    },
    {
      "name": "GeometryNode_161",
      "primitives": [
        {
          "attributes": {
            "POSITION": 64,
            "COLOR_0": 65
          },
          "mode": 0,
          "material": 0
        }
      ]
    }
  ],
  "nodes": [
    {
      "name": "rat_creep_up_small.ply.cleaner.materialmerger.gles",
      "children": [
        1,
        2,
        3,
        4,
        5,
        6,
        7,
        8,
        9,
        10,
        11,
        12,
        13,
        14,
        15,
        16,
        17,
        18,
        19,
        20,
        21,
        22,
        23,
        24,
        25,
        26,
        27,
        28,
        29,
        30,
        31,
        32,
        33
      ]
    },
    {
      "name": "GeometryNode_1",
      "mesh": 0
    },
    {
      "name": "GeometryNode_6",
      "mesh": 1
    },
    {
      "name": "GeometryNode_11",
      "mesh": 2
    },
    {
      "name": "GeometryNode_16",
      "mesh": 3
    },
    {
      "name": "GeometryNode_21",
      "mesh": 4
    },
    {
      "name": "GeometryNode_26",
      "mesh": 5
    },
    {
      "name": "GeometryNode_31",
      "mesh": 6
    },
    {
      "name": "GeometryNode_36",
      "mesh": 7
    },
    {
      "name": "GeometryNode_41",
      "mesh": 8
    },
    {
      "name": "GeometryNode_46",
      "mesh": 9
    },
    {
      "name": "GeometryNode_51",
      "mesh": 10
    },
    {
      "name": "GeometryNode_56",
      "mesh": 11
    },
    {
      "name": "GeometryNode_61",
      "mesh": 12
    },
    {
      "name": "GeometryNode_66",
      "mesh": 13
    },
    {
      "name": "GeometryNode_71",
      "mesh": 14
    },
    {
      "name": "GeometryNode_76",
      "mesh": 15
    },
    {
      "name": "GeometryNode_81",
      "mesh": 16
    },
    {
      "name": "GeometryNode_86",
      "mesh": 17
    },
    {
      "name": "GeometryNode_91",
      "mesh": 18
    },
    {
      "name": "GeometryNode_96",
      "mesh": 19
    },
    {
      "name": "GeometryNode_101",
      "mesh": 20
    },
    {
      "name": "GeometryNode_106",
      "mesh": 21
    },
    {
      "name": "GeometryNode_111",
      "mesh": 22
    },
    {
      "name": "GeometryNode_116",
      "mesh": 23
    },
    {
      "name": "GeometryNode_121",
      "mesh": 24
    },
    {
      "name": "GeometryNode_126",
      "mesh": 25
    },
    {
      "name": "GeometryNode_131",
      "mesh": 26
    },
    {
      "name": "GeometryNode_136",
      "mesh": 27
    },
    {
      "name": "GeometryNode_141",
      "mesh": 28
    },
    {
      "name": "GeometryNode_146",
      "mesh": 29
    },
    {
      "name": "GeometryNode_151",
      "mesh": 30
    },
    {
      "name": "GeometryNode_156",
      "mesh": 31
    },
    {
      "name": "GeometryNode_161",
      "mesh": 32
    },
    {
      "name": "Sketchfab_model",
      "translation": [
        1.9648171663284302,
        -6.66610860824585,
        -6.7178215980529785
      ],
      "rotation": [
        0.3465904724081803,
        0.04288583098218174,
        0.015864873052413245,
        0.9369013585872097
      ],
      "children": [
        0
      ]
    }
  ],
  "scenes": [
    {
      "name": "Scene",
      "nodes": [
        34
      ]
    }
  ],
  "extensionsUsed": [
    "KHR_materials_unlit"
  ]
}